<svg width="1049" height="141" viewBox="0 0 1049 141" fill="none" xmlns="http://www.w3.org/2000/svg">
<g filter="url(#filter0_d_0_3)">
<path d="M19.9879 18.9091H51.4425L64.3516 71.6364H65.4425L95.8061 18.9091H127.261L111.806 112H87.0788L95.9879 58.1818H95.2607L65.8061 111.273H50.897L39.0788 57.8182H38.3516L29.2607 112H4.53338L19.9879 18.9091ZM157.42 113.273C149.965 113.273 143.783 111.848 138.874 109C133.965 106.121 130.511 102 128.511 96.6364C126.511 91.2424 126.147 84.7879 127.42 77.2727C128.632 70.0606 131.132 63.7576 134.92 58.3636C138.738 52.9697 143.541 48.7727 149.329 45.7727C155.147 42.7727 161.662 41.2727 168.874 41.2727C174.147 41.2727 178.768 42.0909 182.738 43.7273C186.738 45.3636 189.996 47.7424 192.511 50.8636C195.026 53.9848 196.723 57.7576 197.602 62.1818C198.511 66.5758 198.511 71.5455 197.602 77.0909L196.692 82.9091H134.329L136.511 69.0909H175.783C176.086 67.0909 175.889 65.3333 175.192 63.8182C174.526 62.2727 173.45 61.0758 171.965 60.2273C170.511 59.3485 168.753 58.9091 166.692 58.9091C164.632 58.9091 162.692 59.3485 160.874 60.2273C159.086 61.1061 157.556 62.3333 156.283 63.9091C155.041 65.4848 154.208 67.3333 153.783 69.4545L151.056 84C150.692 86.2424 150.829 88.2424 151.465 90C152.102 91.7576 153.208 93.1364 154.783 94.1364C156.359 95.1364 158.389 95.6364 160.874 95.6364C162.571 95.6364 164.177 95.4091 165.692 94.9545C167.238 94.4697 168.602 93.7727 169.783 92.8636C170.996 91.9242 171.965 90.7879 172.692 89.4545H195.602C193.965 94.303 191.374 98.5152 187.829 102.091C184.314 105.636 179.98 108.394 174.829 110.364C169.708 112.303 163.905 113.273 157.42 113.273ZM194.567 132.727L201.113 93.0909H206.204C207.901 92.4545 209.401 90.9545 210.704 88.5909C212.037 86.197 213.219 83.3939 214.249 80.1818C215.28 76.9697 216.174 73.7273 216.931 70.4545C217.689 67.1515 218.355 64.2727 218.931 61.8182L223.658 42.1818H283.295L274.931 93.0909H285.84L279.295 132.727H255.658L259.113 112H222.386L218.931 132.727H194.567ZM230.204 93.0909H251.658L257.113 60.3636H241.477L241.113 61.8182C239.537 69.3636 237.916 75.6515 236.249 80.6818C234.583 85.6818 232.567 89.8182 230.204 93.0909ZM538.694 112L516.421 74.3636H512.876L506.603 112H481.33L496.785 18.9091H522.058L516.239 54H519.512L552.058 18.9091H583.876L541.058 63.6364L570.421 112H538.694ZM574.842 112L577.751 93.0909H579.933C581.296 93.0909 582.569 92.697 583.751 91.9091C584.933 91.1212 586.039 89.9091 587.069 88.2727C588.099 86.6364 589.039 84.5606 589.887 82.0455C590.766 79.5303 591.569 76.5455 592.296 73.0909L598.478 42.1818H655.933L644.296 112H620.66L629.205 60.9091H617.569L613.387 79.8182C612.084 85.7576 610.387 90.7879 608.296 94.9091C606.236 99.0303 603.857 102.348 601.16 104.864C598.463 107.348 595.508 109.167 592.296 110.318C589.114 111.439 585.72 112 582.114 112H574.842ZM685.41 80L711.228 42.1818H734.864L723.228 112H699.592L705.955 74L680.137 112H656.501L668.137 42.1818H691.773L685.41 80ZM793.398 67.4545L790.308 86.1818H755.217L758.308 67.4545H793.398ZM771.398 42.1818L759.762 112H736.126L747.762 42.1818H771.398ZM812.308 42.1818L800.671 112H777.217L788.853 42.1818H812.308ZM841.785 80L867.603 42.1818H891.239L879.603 112H855.967L862.33 74L836.512 112H812.876L824.512 42.1818H848.148L841.785 80ZM892.501 112L904.137 42.1818H929.228L925.046 67.0909H929.41L948.501 42.1818H977.228L949.046 77.4545L965.773 112H936.683L926.864 90.3636H921.228L917.592 112H892.501ZM990.842 113.091C986.417 113.091 982.614 112.364 979.433 110.909C976.281 109.424 973.978 107.182 972.523 104.182C971.099 101.152 970.781 97.3333 971.569 92.7273C972.205 88.9091 973.402 85.6515 975.16 82.9545C976.917 80.2576 979.099 78.0455 981.705 76.3182C984.311 74.5909 987.236 73.2727 990.478 72.3636C993.751 71.4242 997.205 70.8182 1000.84 70.5455C1004.78 70.2424 1007.98 69.8636 1010.43 69.4091C1012.89 68.9545 1014.72 68.3333 1015.93 67.5455C1017.14 66.7576 1017.87 65.697 1018.11 64.3636V64.1818C1018.39 62.3636 1017.9 60.9697 1016.66 60C1015.45 59.0303 1013.75 58.5455 1011.57 58.5455C1009.21 58.5455 1007.16 59.0606 1005.43 60.0909C1003.74 61.1212 1002.57 62.7273 1001.93 64.9091H978.842C979.811 60.6667 981.796 56.7576 984.796 53.1818C987.826 49.5758 991.842 46.697 996.842 44.5455C1001.87 42.3636 1007.87 41.2727 1014.84 41.2727C1019.81 41.2727 1024.17 41.8636 1027.93 43.0455C1031.69 44.197 1034.8 45.8182 1037.25 47.9091C1039.74 49.9697 1041.48 52.3939 1042.48 55.1818C1043.51 57.9394 1043.75 60.9394 1043.21 64.1818L1035.21 112H1011.75L1013.39 102.182H1012.84C1011.02 104.788 1008.98 106.894 1006.71 108.5C1004.46 110.106 1002.01 111.273 999.342 112C996.705 112.727 993.872 113.091 990.842 113.091ZM1001.75 97.2727C1003.63 97.2727 1005.48 96.8788 1007.3 96.0909C1009.11 95.303 1010.67 94.1667 1011.98 92.6818C1013.28 91.197 1014.11 89.3939 1014.48 87.2727L1015.39 81.4545C1014.72 81.7273 1013.98 81.9848 1013.16 82.2273C1012.37 82.4394 1011.54 82.6515 1010.66 82.8636C1009.81 83.0758 1008.9 83.2727 1007.93 83.4545C1006.99 83.6364 1006.02 83.8182 1005.02 84C1003.02 84.303 1001.34 84.803 999.978 85.5C998.614 86.1667 997.554 87 996.796 88C996.039 88.9697 995.569 90.0606 995.387 91.2727C995.114 93.1818 995.554 94.6667 996.705 95.7273C997.887 96.7576 999.569 97.2727 1001.75 97.2727Z" fill="#4E65C3"/>
<path d="M362.431 105.466L379.761 0.352275H411.579L394.249 105.466H362.431ZM331.749 68.8182L337.147 37H442.261L436.863 68.8182H331.749Z" fill="#C34E4E"/>
</g>
<defs>
<filter id="filter0_d_0_3" x="0.533386" y="0.352295" width="1047.49" height="140.375" filterUnits="userSpaceOnUse" color-interpolation-filters="sRGB">
<feFlood flood-opacity="0" result="BackgroundImageFix"/>
<feColorMatrix in="SourceAlpha" type="matrix" values="0 0 0 0 0 0 0 0 0 0 0 0 0 0 0 0 0 0 127 0" result="hardAlpha"/>
<feOffset dy="4"/>
<feGaussianBlur stdDeviation="2"/>
<feComposite in2="hardAlpha" operator="out"/>
<feColorMatrix type="matrix" values="0 0 0 0 0 0 0 0 0 0 0 0 0 0 0 0 0 0 0.25 0"/>
<feBlend mode="normal" in2="BackgroundImageFix" result="effect1_dropShadow_0_3"/>
<feBlend mode="normal" in="SourceGraphic" in2="effect1_dropShadow_0_3" result="shape"/>
</filter>
</defs>
</svg>
